# xmcd CD database file
#
# Track frame offsets:
#	150
#	20712
#	67306
#	108068
#	133509
#	160363
#	187804
#
# Disc length: 3285 seconds
#
# Revision: 0
# Processed by: cddbd v1.5.2PL0 Copyright (c) Steve Scherf et al.
# Submitted via: CDex 1.70beta2
#
DISCID=5b0cd307
DTITLE=Wolfgang Lackerschmid - Common Language Common Sense
DYEAR=2010
DGENRE=Jazz
TTITLE0=Good For The Soul 
TTITLE1=Eight Views, One Truth
TTITLE2=Amaylah 
TTITLE3=Peace - Bell - Um
TTITLE4=My Psalms
TTITLE5=Response
TTITLE6=Kagomee, Kagomee
EXTD=YEAR: 2010
EXTT0=
EXTT1=
EXTT2=
EXTT3=
EXTT4=
EXTT5=
EXTT6=
PLAYORDER=
